<?xml version="1.0" standalone="no"?>
<!DOCTYPE svg PUBLIC "-//W3C//DTD SVG 20010904//EN"
 "http://www.w3.org/TR/2001/REC-SVG-20010904/DTD/svg10.dtd">
<svg version="1.0" xmlns="http://www.w3.org/2000/svg"
 width="500.000000pt" height="500.000000pt" viewBox="0 0 500.000000 500.000000"
 preserveAspectRatio="xMidYMid meet">

<g transform="translate(0.000000,500.000000) scale(0.100000,-0.100000)"
fill="#000000" stroke="none">
<path d="M2345 4800 c-259 -115 -566 -206 -877 -259 -211 -37 -348 -50 -583
-59 l-180 -7 -3 -772 -2 -773 -134 0 c-74 0 -137 -4 -140 -9 -5 -7 31 -189 79
-406 12 -53 13 -81 6 -115 -6 -25 -28 -125 -51 -223 -22 -98 -40 -187 -40
-198 0 -18 8 -19 138 -19 l139 0 12 -82 c30 -198 95 -385 197 -572 192 -352
493 -628 1010 -927 184 -106 530 -259 586 -259 16 0 89 25 161 56 558 237
1028 571 1286 913 80 107 112 160 175 291 72 150 122 302 142 431 9 57 18 114
20 127 4 22 7 22 149 22 117 0 145 3 145 14 0 8 -23 114 -51 237 -58 253 -58
224 0 477 17 73 34 158 37 188 l7 54 -142 0 -141 0 0 775 0 775 -103 0 c-272
0 -715 61 -1012 140 -207 54 -480 152 -606 215 -26 14 -59 25 -71 24 -13 0
-81 -27 -153 -59z m333 -190 c83 -33 156 -60 162 -60 6 0 30 -9 54 -20 115
-52 324 -103 531 -130 39 -5 104 -16 145 -24 41 -8 147 -20 235 -26 88 -6 198
-15 245 -18 l85 -7 3 -697 2 -698 -755 0 c-520 0 -755 3 -755 10 0 22 31 70
53 82 15 9 93 15 257 18 233 5 235 5 281 32 25 15 60 43 78 63 54 62 61 92 61
256 l0 149 -113 0 -114 0 5 -97 c2 -54 0 -114 -5 -133 l-9 -35 -215 -5 c-254
-7 -287 -16 -367 -106 l-48 -53 -34 47 c-24 31 -54 56 -94 77 l-60 30 -215 3
c-129 2 -221 8 -228 14 -9 7 -13 47 -13 134 l0 124 -115 0 -115 0 0 -125 c0
-68 5 -147 11 -175 14 -64 59 -124 124 -164 l50 -31 235 -5 c168 -4 242 -9
258 -18 21 -12 62 -67 62 -84 0 -5 -340 -8 -755 -8 l-755 0 0 694 0 694 23 6
c12 3 58 6 102 6 108 1 453 35 488 49 16 6 51 11 79 11 29 0 77 6 107 14 31 8
101 24 156 36 55 12 138 33 185 47 81 24 128 42 334 128 108 46 132 53 172 54
18 1 99 -26 182 -59z m-280 -1849 c41 -29 58 -62 66 -133 l7 -58 -70 0 -71 0
0 39 c0 45 -20 71 -55 71 -52 0 -55 -15 -55 -235 0 -218 4 -235 51 -235 41 0
58 19 65 70 l7 50 63 0 64 0 0 -45 c0 -119 -90 -195 -215 -182 -67 7 -107 27
-142 74 l-28 36 -3 201 c-4 237 0 275 36 317 40 48 75 60 168 56 64 -3 87 -8
112 -26z m472 7 c33 -17 51 -35 68 -68 22 -44 23 -52 20 -266 l-3 -221 -27
-35 c-40 -52 -90 -73 -173 -72 -92 0 -137 22 -173 83 -27 46 -27 47 -27 241 0
107 4 212 8 232 9 45 50 96 92 114 50 22 163 18 215 -8z m1354 8 c47 -19 76
-66 83 -130 l6 -54 -67 -4 -66 -3 0 32 c0 37 -22 63 -55 63 -34 0 -55 -26 -55
-69 0 -44 9 -54 122 -131 101 -68 122 -102 122 -196 0 -63 -3 -76 -27 -108
-41 -53 -80 -70 -162 -71 -120 0 -183 48 -193 145 -6 62 -1 66 73 69 l55 2 0
-40 c0 -47 20 -71 60 -71 41 0 60 24 60 76 0 51 -10 63 -95 120 -125 83 -160
138 -148 233 12 100 78 151 191 151 34 0 78 -6 96 -14z m-3224 -51 l0 -55 -85
0 -85 0 0 -80 0 -80 69 0 c69 0 70 0 73 -27 2 -16 2 -41 0 -58 l-4 -30 -69 3
-69 4 0 -91 0 -91 90 0 90 0 0 -55 0 -55 -160 0 -160 0 0 335 0 335 155 0 155
0 0 -55z m410 36 c69 -36 75 -59 78 -301 3 -208 2 -217 -20 -259 -37 -71 -75
-85 -240 -89 l-138 -4 0 336 0 336 143 0 c120 0 148 -3 177 -19z m320 -246 c0
-252 1 -266 20 -285 21 -21 55 -26 79 -11 22 14 30 112 28 344 l-2 217 68 0
68 0 -3 -282 c-3 -321 -6 -332 -83 -372 -56 -29 -174 -29 -229 0 -81 42 -81
39 -84 365 l-3 289 71 0 70 0 0 -265z m1657 239 c55 -41 58 -58 58 -311 0
-218 -1 -233 -21 -260 -39 -54 -84 -68 -236 -71 l-138 -4 0 337 0 336 154 -3
c138 -3 158 -5 183 -24z m473 -29 l0 -55 -90 0 -90 0 0 -80 0 -80 80 0 81 0
-3 -57 -3 -58 -77 -3 -78 -3 0 -84 0 -85 95 0 95 0 0 -55 0 -55 -162 2 -163 3
-2 333 -2 332 159 0 160 0 0 -55z m266 -766 c16 1 -1 -115 -38 -249 -51 -188
-104 -297 -248 -511 -53 -79 -211 -239 -340 -346 -138 -114 -267 -205 -413
-291 -138 -81 -132 -80 -97 -26 16 26 42 83 57 128 24 71 28 96 28 196 -1 101
-4 125 -29 195 -67 186 -211 313 -415 366 -282 73 -591 -92 -679 -361 -34
-103 -44 -192 -33 -274 12 -82 53 -207 83 -249 11 -15 18 -30 15 -33 -7 -7
-155 81 -297 176 -271 183 -483 385 -618 589 -91 139 -140 242 -187 391 -29
93 -65 254 -65 291 0 11 833 15 2190 11 591 -2 1080 -3 1086 -3z m-1776 -624
c0 -3 -8 -18 -17 -32 -10 -15 -13 -28 -8 -30 6 -2 42 -20 80 -41 l70 -37 3
-65 c4 -72 7 -68 -122 -166 -64 -49 -64 -49 -154 -8 l-53 23 7 97 7 97 -38 -6
-39 -6 54 54 c57 58 210 145 210 120z m420 -55 c25 -16 63 -47 85 -69 l39 -41
-27 0 -27 0 0 -99 0 -100 -56 -21 c-31 -11 -65 -22 -75 -23 -10 -1 -57 27
-103 63 l-85 65 0 73 c-1 60 2 74 17 80 9 4 45 22 80 40 l62 32 -15 31 -16 30
38 -16 c21 -9 58 -29 83 -45z m221 -444 c18 17 19 16 19 -17 0 -47 -16 -102
-52 -181 -33 -71 -42 -81 -51 -48 -5 19 -6 19 -78 -5 -40 -14 -77 -25 -83 -25
-6 0 -32 24 -58 54 l-47 53 37 106 37 106 70 30 70 30 58 -60 c56 -59 59 -60
78 -43z m-770 68 l57 -27 30 -86 c16 -47 33 -95 36 -107 5 -15 -6 -34 -42 -74
l-49 -54 -78 24 c-72 23 -78 23 -90 7 -7 -9 -15 -17 -18 -17 -20 0 -98 252
-83 268 3 2 13 -1 25 -7 17 -10 26 -4 68 44 27 31 56 55 68 55 10 0 45 -12 76
-26z m433 -316 c25 -29 46 -56 46 -61 0 -4 -18 -35 -40 -67 -44 -64 -48 -78
-25 -86 77 -30 -146 -59 -251 -33 -49 13 -53 19 -24 37 19 12 19 14 -26 82
l-46 69 47 56 47 55 113 0 113 0 46 -52z"/>
<path d="M2360 4435 c0 -63 -17 -111 -50 -140 -20 -19 -40 -20 -269 -25 -273
-6 -275 -6 -348 -82 -57 -59 -66 -96 -71 -270 l-4 -158 116 0 116 0 0 128 c0
70 5 134 10 142 8 12 49 16 237 20 210 5 231 7 269 27 40 21 124 106 124 125
0 5 15 -10 33 -33 41 -54 102 -98 153 -109 21 -5 127 -10 235 -10 156 0 199
-3 208 -14 7 -9 13 -63 14 -142 l2 -129 113 -3 113 -3 -3 169 c-3 168 -3 169
-33 217 -17 27 -52 65 -80 84 l-49 36 -254 5 -254 5 -29 33 c-27 30 -29 39
-29 107 l0 75 -135 0 -135 0 0 -55z"/>
<path d="M2640 3848 c-26 -61 -60 -157 -60 -170 0 -5 19 -8 41 -6 40 3 42 5
62 58 l20 55 19 -57 20 -58 44 0 c30 0 44 4 44 13 0 18 -32 109 -59 170 -21
46 -23 47 -65 47 -43 0 -44 -1 -66 -52z"/>
<path d="M2162 3827 c-33 -35 -30 -99 4 -126 58 -46 134 -7 134 68 0 31 -6 44
-26 60 -36 28 -85 27 -112 -2z"/>
<path d="M2120 3505 c-34 -40 38 -114 136 -140 122 -33 370 -30 497 6 42 11
113 69 122 100 4 11 1 27 -6 35 -15 18 -52 15 -119 -12 -35 -13 -84 -18 -220
-22 -179 -4 -266 5 -323 33 -38 19 -71 19 -87 0z"/>
<path d="M2714 2666 c-18 -13 -19 -28 -19 -221 0 -193 1 -208 19 -221 27 -19
70 -18 89 4 25 27 25 412 1 436 -19 20 -64 21 -90 2z"/>
<path d="M1230 2445 l0 -225 43 0 c75 0 77 7 77 227 0 217 -2 223 -78 223
l-42 0 0 -225z"/>
<path d="M3197 2663 c-3 -5 -4 -105 -3 -223 l1 -215 37 -3 c27 -2 43 3 57 17
20 20 21 33 21 206 0 172 -1 186 -20 205 -20 20 -84 28 -93 13z"/>
<path d="M2564 1881 c-60 -27 -74 -64 -74 -201 0 -133 11 -163 73 -191 108
-49 237 7 237 102 0 28 -2 29 -49 29 -44 0 -49 -3 -55 -25 -6 -25 -38 -40 -73
-33 -16 3 -18 15 -18 123 l0 120 38 3 c35 3 39 0 50 -27 11 -29 15 -31 61 -31
l49 0 -6 41 c-3 22 -14 50 -24 61 -43 49 -137 62 -209 29z"/>
<path d="M2170 1685 l0 -205 50 0 50 0 0 75 0 75 60 0 60 0 0 45 0 45 -60 0
-60 0 0 40 0 40 75 0 75 0 0 45 0 45 -125 0 -125 0 0 -205z"/>
</g>
</svg>
